<svg width="156" height="116" viewBox="0 0 156 116" fill="none" xmlns="http://www.w3.org/2000/svg">
<path fill-rule="evenodd" clip-rule="evenodd" d="M54.5565 1.06438C50.9596 5.16104 50.4673 11.9371 53.3515 17.6509C53.8516 18.6411 54.2607 19.5254 54.2607 19.6154C54.2607 20.3644 48.9553 18.2431 46.2729 16.4214C45.2358 15.7171 43.9411 14.613 43.3954 13.9683L42.4037 12.7956L42.5639 16.5204C42.7992 22.0058 44.0228 25.7548 46.3663 28.1734C46.9523 28.7781 47.4319 29.3592 47.4319 29.4647C47.4319 29.5699 45.9302 29.1822 44.0951 28.603C42.26 28.0238 40.5655 27.5477 40.3296 27.5449C39.7063 27.5371 40.0323 39.9429 40.762 43.9908C41.7568 49.51 43.6999 54.8622 45.5803 57.2641C45.8839 57.6518 46.0581 58.2425 45.969 58.5827C45.8802 58.9219 46.0658 59.5837 46.3812 60.0533C46.6969 60.5233 47.1246 61.7165 47.3316 62.7051C48.4041 67.8214 51.8545 71.6834 56.6858 73.1758C64.8105 75.6854 72.9085 70.4375 74.2386 61.8006L74.6154 59.3556L76.1351 59.2587C78.7394 59.0923 78.9772 59.2507 79.1904 61.2934C79.9341 68.4068 85.6939 73.7892 92.5624 73.7892C99.2848 73.7892 104.711 69.3768 106.113 62.77C106.331 61.7456 106.68 60.698 106.89 60.442C107.1 60.1859 107.341 59.4176 107.425 58.7348C107.509 58.0519 108.007 56.3059 108.532 54.8548C109.645 51.7747 110.443 47.5362 110.443 44.7081C110.443 42.5152 109.89 38.3819 109.547 38.0181C109.428 37.8914 108.045 38.6196 106.472 39.6365C104.901 40.6531 103.614 41.366 103.614 41.2208C103.614 41.0752 104.035 40.0568 104.55 38.957C105.064 37.8576 105.842 35.5721 106.278 33.8783C106.947 31.2753 107.053 30.2705 106.96 27.3844C106.865 24.4151 106.733 23.713 105.951 21.9968L105.052 20.0236L104.411 20.9104C102.641 23.3604 98.33 27.1426 97.7303 26.772C97.6024 26.6928 97.418 25.2619 97.3209 23.5919C96.7963 14.5798 91.8811 8.18806 84.2788 6.63171C83.0484 6.37998 79.5272 6.02054 76.4542 5.83305C67.8798 5.31003 60.7722 3.57738 57.4752 1.20624C56.8168 0.732878 56.1178 0.248964 55.9216 0.130702C55.7168 0.00747288 55.1351 0.405406 54.5565 1.06438ZM55.9294 11.9771C56.6489 14.7685 58.6566 18.4555 60.6664 20.6764C62.6511 22.8693 62.3416 23.1357 59.9512 21.2916C55.9856 18.2323 53.6638 13.0455 54.0629 8.13808C54.1604 6.94242 54.4184 5.47578 54.6366 4.87889C55.0165 3.83905 55.041 3.92254 55.2266 6.89803C55.3331 8.60523 55.6494 10.891 55.9294 11.9771ZM83.7697 9.41072C87.9747 10.6458 91.3764 13.445 93.0693 17.0624C93.9567 18.9589 94.6126 21.543 94.6126 23.1431C94.6126 24.2 94.2709 23.7409 93.3794 21.4868C91.0725 15.6544 87.005 11.9634 80.567 9.85987C79.4148 9.48335 78.4718 9.11708 78.4718 9.04538C78.4718 8.7086 82.2708 8.97057 83.7697 9.41072ZM45.2243 20.0124C46.7006 23.0162 48.6561 25.8507 50.792 28.0828C52.8155 30.1976 52.7881 30.5343 50.7097 29.1043C48.6589 27.6936 46.5137 25.1278 45.3786 22.7284C44.3512 20.5569 43.586 17.9172 43.984 17.9172C44.0997 17.9172 44.6578 18.8599 45.2243 20.0124ZM90.4222 28.2219L91.6638 28.5903L89.5143 28.8206C86.7828 29.113 83.8076 30.5638 80.6446 33.1448C77.3361 35.8447 74.0722 37.9538 72.1828 38.6125C70.9043 39.0585 69.6611 39.1756 66.3663 39.1604C62.7116 39.1433 61.8195 39.0318 59.3888 38.2875C55.1391 36.986 55.2546 36.8553 60.3135 37.239C64.7038 37.5723 68.4733 37.216 71.1486 36.215C72.1543 35.8388 74.4292 34.536 76.2034 33.3199C81.2232 29.8803 82.5219 29.1254 84.5246 28.4826C86.6863 27.7889 88.6675 27.7013 90.4222 28.2219ZM80.1818 39.102C79.5135 42.4438 77.9215 45.423 76.228 46.5004L75.2126 47.1463L77.8247 46.9396C83.0993 46.5221 88.467 44.5492 90.872 42.1442L92.1561 40.8601L93.8655 41.1761C97.9668 41.9344 100.23 43.8182 101.738 47.7292C102.258 49.0764 102.683 50.2609 102.683 50.3611C102.683 50.4614 101.896 49.9803 100.935 49.2918C93.8497 44.218 84.2288 46.5382 80.5723 54.2026L79.561 56.322H76.728H73.895L73.1898 54.6207C72.7686 53.6042 71.7399 52.1229 70.6349 50.9419C66.4156 46.4315 60.4041 45.3233 54.6819 48.0012C52.4399 49.0503 49.7754 51.5406 48.8069 53.4921L48.2079 54.6996L48.1207 48.9572C47.9785 39.6272 48.7415 38.7699 55.4644 40.704C62.3202 42.6766 67.4055 42.8681 73.2875 41.376C76.1882 40.6403 79.0334 39.3783 79.7569 38.5066C80.293 37.8607 80.4 38.0109 80.1818 39.102ZM65.5586 50.3518C67.6405 51.405 69.6698 53.4785 70.7261 55.6308C71.3724 56.9478 71.4878 57.6294 71.4875 60.1316C71.4872 63.6701 70.9145 65.1756 68.6449 67.602C63.288 73.3285 54.1381 71.8271 50.8335 64.6792C48.9311 60.564 49.6422 56.1997 52.7683 52.8083C55.2201 50.1485 57.5034 49.2257 61.2813 49.3675C63.3181 49.4442 64.1376 49.6326 65.5586 50.3518ZM97.5298 50.3518C99.6163 51.4075 101.845 53.6855 102.779 55.7186C103.319 56.8922 103.453 57.7682 103.456 60.1316C103.459 62.6778 103.348 63.3135 102.644 64.7876C99.3723 71.6434 90.3316 73.2329 84.9902 67.8916C82.9835 65.8848 82.1079 63.8244 81.9567 60.7524C81.794 57.4503 82.5216 55.2856 84.5547 53.0243C87.1189 50.1724 89.3796 49.222 93.2525 49.3675C95.2893 49.4442 96.1087 49.6326 97.5298 50.3518ZM60.9097 55.4433C57.6257 56.9351 56.8177 60.9097 59.2386 63.667C60.4562 65.0539 61.6758 65.5204 63.5994 65.3357C65.8684 65.1175 67.5734 63.6726 68.2156 61.4228C68.4782 60.5041 68.4515 60.4125 67.9822 60.6195C67.691 60.7477 66.9483 60.9128 66.3318 60.9864C65.4152 61.0954 65.0126 60.9454 64.1208 60.1623C62.7206 58.9331 62.4347 57.6248 63.2194 56.0386L63.8051 54.8548L62.9907 54.8616C62.5424 54.8653 61.6063 55.1273 60.9097 55.4433Z" fill="black"/>
<path fill-rule="evenodd" clip-rule="evenodd" d="M48.6022 66.3616C50.2568 69.6397 53.0885 72.0646 56.6858 73.1758C64.8105 75.6854 72.9085 70.4375 74.2386 61.8006L74.6154 59.3556L76.1351 59.2587C78.7394 59.0923 78.9772 59.2507 79.1904 61.2934C79.9341 68.4068 85.6939 73.7891 92.5624 73.7891C99.2847 73.7891 104.711 69.3768 106.113 62.77C106.331 61.7456 106.68 60.698 106.89 60.442C107.1 60.1859 107.341 59.4176 107.425 58.7348C107.509 58.0519 108.007 56.3059 108.532 54.8548C109.645 51.7747 110.443 47.5362 110.443 44.7081C110.443 42.5151 109.89 38.3819 109.547 38.0181C109.428 37.8914 108.045 38.6196 106.472 39.6365C104.9 40.6531 103.614 41.366 103.614 41.2208C103.614 41.0752 104.035 40.0568 104.55 38.957C105.064 37.8576 105.842 35.5721 106.278 33.8783C106.947 31.2753 107.053 30.2705 106.96 27.3844C106.865 24.4151 106.733 23.713 105.951 21.9968L105.052 20.0236L104.411 20.9104C102.641 23.3604 98.33 27.1426 97.7303 26.772C97.6024 26.6928 97.418 25.2619 97.3208 23.5919C97.1573 20.7827 96.5672 18.228 95.602 15.9951L93.5587 18.2373C94.1875 19.9289 94.6126 21.8549 94.6126 23.1431C94.6126 24.2 94.2709 23.7409 93.3794 21.4868C93.0981 20.7756 92.7906 20.0962 92.4558 19.4476L84.0895 28.6283C84.2319 28.5784 84.3763 28.5302 84.5246 28.4826C86.6862 27.7889 88.6675 27.7013 90.4222 28.2219L91.6638 28.5903L89.5143 28.8206C86.7828 29.113 83.8076 30.5638 80.6446 33.1448C79.8688 33.7779 79.0955 34.3784 78.3418 34.9354L77.0035 36.4041L72.0042 41.6773C72.4284 41.5859 72.8558 41.4855 73.2875 41.376C76.1882 40.6403 79.0333 39.3782 79.7569 38.5066C80.2929 37.8607 80.4 38.0109 80.1818 39.102C79.5135 42.4438 77.9215 45.423 76.2279 46.5004L75.2126 47.1463L77.8246 46.9396C83.0993 46.5221 88.467 44.5492 90.872 42.1442L92.1561 40.8601L93.8655 41.1761C97.9668 41.9344 100.23 43.8182 101.738 47.7292C102.258 49.0764 102.683 50.2609 102.683 50.3611C102.683 50.4614 101.896 49.9803 100.935 49.2918C93.8496 44.218 84.2288 46.5382 80.5723 54.2026L79.561 56.322H76.728H73.895L73.1898 54.6207C72.7685 53.6042 71.7399 52.1229 70.6349 50.9419C69.327 49.5438 67.847 48.4726 66.2567 47.7397L64.2998 49.8039C64.6975 49.9399 65.0962 50.1178 65.5586 50.3518C67.6404 51.405 69.6698 53.4785 70.7261 55.6308C71.3724 56.9478 71.4878 57.6294 71.4875 60.1316C71.4872 63.6701 70.9145 65.1756 68.6449 67.6019C63.288 73.3285 54.138 71.8271 50.8335 64.6792C50.7629 64.5265 50.6959 64.3734 50.6325 64.22L48.6022 66.3616ZM102.779 55.7186C101.845 53.6855 99.6163 51.4075 97.5297 50.3518C96.1087 49.6326 95.2893 49.4442 93.2524 49.3675C89.3796 49.222 87.1189 50.1724 84.5547 53.0243C82.5216 55.2856 81.794 57.4503 81.9567 60.7524C82.1078 63.8244 82.9835 65.8848 84.9902 67.8916C90.3316 73.2329 99.3723 71.6434 102.644 64.7876C103.348 63.3135 103.459 62.6778 103.456 60.1316C103.453 57.7682 103.319 56.8922 102.779 55.7186Z" fill="white"/>
<path d="M91.251 55.2151C91.2504 55.1399 91.3937 54.6793 91.5695 54.1917L91.8887 53.3052L92.1106 53.8468C92.2328 54.1446 92.3874 54.6051 92.4542 54.87C92.5689 55.3242 92.5377 55.352 91.9138 55.352C91.5498 55.352 91.2515 55.2903 91.251 55.2151Z" fill="white"/>
<path d="M88.2658 56.7781C88.2113 56.6463 88.0343 56.2306 87.8723 55.854C87.532 55.0621 87.5857 55.044 88.6431 55.5948L89.4281 56.0037L88.8965 56.5107C88.5153 56.8739 88.3368 56.9497 88.2658 56.7781Z" fill="white"/>
<path d="M94.3316 56.1089L95.2224 55.6568C95.7124 55.4082 96.1376 55.228 96.1675 55.2563C96.2536 55.3381 95.4108 56.995 95.2831 56.995C95.22 56.995 94.9801 56.7956 94.75 56.5519L94.3316 56.1089Z" fill="white"/>
<path d="M88.6837 59.5507C88.6837 58.3021 89.5651 57.0039 90.7016 56.5791C90.8529 56.5225 91.3783 56.4696 91.869 56.4617C93.6822 56.4325 95.0065 57.729 95.0065 59.5338C95.0065 61.4997 93.6266 62.7633 91.6364 62.62C89.883 62.4939 88.6837 61.2472 88.6837 59.5507Z" fill="white"/>
<path d="M86.0237 59.648C85.7179 59.5319 85.8096 59.4538 86.574 59.1789C87.8062 58.7354 87.7664 58.723 87.7664 59.5507C87.7664 59.9524 87.7353 60.281 87.6971 60.281C87.6589 60.281 87.3495 60.1698 87.0092 60.0341C86.6689 59.8983 86.2255 59.7245 86.0237 59.648Z" fill="white"/>
<path d="M96.0215 60.278V59.5661V58.8541L96.94 59.1464C97.9523 59.4686 97.9403 59.5401 96.8011 59.9783L96.0215 60.278Z" fill="white"/>
<path d="M94.3888 62.9158C94.3443 62.8716 94.5015 62.6303 94.7381 62.3796C94.9746 62.129 95.22 61.9239 95.2831 61.9239C95.3864 61.9239 96.2049 63.4623 96.2049 63.6566C96.2049 63.7398 94.5306 63.0569 94.3888 62.9158Z" fill="white"/>
<path d="M87.6454 63.6898C87.61 63.6547 87.7672 63.2847 87.9948 62.8678C88.2223 62.4506 88.456 62.1089 88.5142 62.108C88.5721 62.1072 88.8068 62.3048 89.0355 62.5468L89.4512 62.9873L88.5806 63.3707C88.1016 63.5814 87.6808 63.725 87.6454 63.6898Z" fill="white"/>
<path d="M91.6012 64.8302C91.4203 64.3864 91.2679 63.9207 91.2622 63.7951C91.2558 63.654 91.4972 63.5669 91.894 63.5669C92.6336 63.5669 92.636 63.5752 92.233 64.7519L91.9299 65.6369L91.6012 64.8302Z" fill="white"/>
<path d="M7.9152 81.2109V106.805H2.65934V81.2109H7.9152ZM17.4953 91.8457V106.805H12.4328V87.7852H17.1789L17.4953 91.8457ZM16.757 96.627H15.3859C15.3859 95.2207 15.5675 93.9551 15.9308 92.8301C16.2941 91.6934 16.8039 90.7266 17.4601 89.9297C18.1164 89.1211 18.8957 88.5059 19.798 88.084C20.7121 87.6504 21.7316 87.4336 22.8566 87.4336C23.7472 87.4336 24.5617 87.5625 25.3 87.8203C26.0382 88.0781 26.6711 88.4883 27.1984 89.0508C27.7375 89.6133 28.1476 90.3574 28.4289 91.2832C28.7218 92.209 28.8683 93.3398 28.8683 94.6758V106.805H23.7707V94.6582C23.7707 93.8145 23.6535 93.1582 23.4191 92.6895C23.1847 92.2207 22.839 91.8926 22.382 91.7051C21.9367 91.5059 21.3859 91.4062 20.7297 91.4062C20.05 91.4062 19.4582 91.541 18.9543 91.8105C18.4621 92.0801 18.0519 92.4551 17.7238 92.9355C17.4074 93.4043 17.1672 93.9551 17.0031 94.5879C16.839 95.2207 16.757 95.9004 16.757 96.627ZM42.0343 87.7852V91.3711H30.9601V87.7852H42.0343ZM33.7023 83.0918H38.7648V101.074C38.7648 101.625 38.8351 102.047 38.9757 102.34C39.1281 102.633 39.3507 102.838 39.6437 102.955C39.9367 103.061 40.3058 103.113 40.7511 103.113C41.0675 103.113 41.3488 103.102 41.5949 103.078C41.8527 103.043 42.0695 103.008 42.2453 102.973L42.2629 106.699C41.8293 106.84 41.3605 106.951 40.8566 107.033C40.3527 107.115 39.7961 107.156 39.1867 107.156C38.0734 107.156 37.1007 106.975 36.2687 106.611C35.4484 106.236 34.8156 105.639 34.3703 104.818C33.925 103.998 33.7023 102.92 33.7023 101.584V83.0918ZM49.8566 79.8047V106.805H44.7941V79.8047H49.8566ZM49.1359 96.627H47.7472C47.7589 95.3027 47.9347 94.084 48.2746 92.9707C48.6144 91.8457 49.1007 90.873 49.7336 90.0527C50.3664 89.2207 51.1222 88.5762 52.0011 88.1191C52.8918 87.6621 53.8761 87.4336 54.9543 87.4336C55.8918 87.4336 56.7414 87.5684 57.5031 87.8379C58.2765 88.0957 58.9386 88.5176 59.4894 89.1035C60.0519 89.6777 60.4855 90.4336 60.7902 91.3711C61.0949 92.3086 61.2472 93.4453 61.2472 94.7812V106.805H56.1496V94.7461C56.1496 93.9023 56.0265 93.2402 55.7804 92.7598C55.5461 92.2676 55.2004 91.9219 54.7433 91.7227C54.298 91.5117 53.7472 91.4062 53.091 91.4062C52.3644 91.4062 51.7433 91.541 51.2277 91.8105C50.7238 92.0801 50.3195 92.4551 50.0148 92.9355C49.7101 93.4043 49.4875 93.9551 49.3468 94.5879C49.2062 95.2207 49.1359 95.9004 49.1359 96.627ZM73.8507 107.156C72.3742 107.156 71.05 106.922 69.8781 106.453C68.7062 105.973 67.7101 105.311 66.8898 104.467C66.0812 103.623 65.4601 102.645 65.0265 101.531C64.5929 100.406 64.3761 99.2109 64.3761 97.9453V97.2422C64.3761 95.8008 64.5812 94.4824 64.9914 93.2871C65.4015 92.0918 65.9875 91.0547 66.7492 90.1758C67.5226 89.2969 68.4601 88.623 69.5617 88.1543C70.6632 87.6738 71.9054 87.4336 73.2882 87.4336C74.6359 87.4336 75.8312 87.6562 76.8742 88.1016C77.9172 88.5469 78.7902 89.1797 79.4933 90C80.2082 90.8203 80.7472 91.8047 81.1105 92.9531C81.4738 94.0898 81.6554 95.3555 81.6554 96.75V98.8594H66.5382V95.4844H76.6808V95.0977C76.6808 94.3945 76.5519 93.7676 76.2941 93.2168C76.048 92.6543 75.673 92.209 75.1691 91.8809C74.6652 91.5527 74.0207 91.3887 73.2355 91.3887C72.5675 91.3887 71.9933 91.5352 71.5129 91.8281C71.0324 92.1211 70.6398 92.5312 70.3351 93.0586C70.0422 93.5859 69.8195 94.207 69.6672 94.9219C69.5265 95.625 69.4562 96.3984 69.4562 97.2422V97.9453C69.4562 98.707 69.5617 99.4102 69.7726 100.055C69.9953 100.699 70.3058 101.256 70.7043 101.725C71.1144 102.193 71.6066 102.557 72.1808 102.814C72.7668 103.072 73.4289 103.201 74.1672 103.201C75.0812 103.201 75.9308 103.025 76.716 102.674C77.5129 102.311 78.1984 101.766 78.7726 101.039L81.2336 103.711C80.8351 104.285 80.2902 104.836 79.5988 105.363C78.9191 105.891 78.0988 106.324 77.1379 106.664C76.1769 106.992 75.0812 107.156 73.8507 107.156ZM95.7707 102.656V79.8047H100.868V106.805H96.2804L95.7707 102.656ZM83.7472 97.5234V97.1543C83.7472 95.7012 83.9113 94.3828 84.2394 93.1992C84.5675 92.0039 85.048 90.9785 85.6808 90.123C86.3136 89.2676 87.0929 88.6055 88.0187 88.1367C88.9445 87.668 89.9992 87.4336 91.1828 87.4336C92.2961 87.4336 93.2687 87.668 94.1007 88.1367C94.9445 88.6055 95.6593 89.2734 96.2453 90.1406C96.8429 90.9961 97.3234 92.0098 97.6867 93.1816C98.05 94.3418 98.3136 95.6133 98.4777 96.9961V97.8047C98.3136 99.1289 98.05 100.359 97.6867 101.496C97.3234 102.633 96.8429 103.629 96.2453 104.484C95.6593 105.328 94.9445 105.984 94.1007 106.453C93.257 106.922 92.2726 107.156 91.1476 107.156C89.964 107.156 88.9093 106.916 87.9836 106.436C87.0695 105.955 86.2961 105.281 85.6632 104.414C85.0422 103.547 84.5675 102.527 84.2394 101.355C83.9113 100.184 83.7472 98.9062 83.7472 97.5234ZM88.8097 97.1543V97.5234C88.8097 98.3086 88.8683 99.041 88.9855 99.7207C89.1144 100.4 89.3195 101.004 89.6007 101.531C89.8937 102.047 90.2687 102.451 90.7257 102.744C91.1945 103.025 91.7629 103.166 92.4308 103.166C93.298 103.166 94.0129 102.973 94.5754 102.586C95.1379 102.188 95.5656 101.643 95.8586 100.951C96.1632 100.26 96.339 99.4629 96.3859 98.5605V96.2578C96.3507 95.5195 96.2453 94.8574 96.0695 94.2715C95.9054 93.6738 95.6593 93.1641 95.3312 92.7422C95.0148 92.3203 94.6164 91.9922 94.1359 91.7578C93.6672 91.5234 93.1105 91.4062 92.466 91.4062C91.8097 91.4062 91.2472 91.5586 90.7785 91.8633C90.3097 92.1562 89.9289 92.5605 89.6359 93.0762C89.3547 93.5918 89.1437 94.2012 89.0031 94.9043C88.8742 95.5957 88.8097 96.3457 88.8097 97.1543ZM115.089 102.516V94.043C115.089 93.4336 114.989 92.9121 114.79 92.4785C114.591 92.0332 114.28 91.6875 113.859 91.4414C113.448 91.1953 112.915 91.0723 112.259 91.0723C111.696 91.0723 111.21 91.1719 110.8 91.3711C110.39 91.5586 110.073 91.834 109.851 92.1973C109.628 92.5488 109.517 92.9648 109.517 93.4453H104.454C104.454 92.6367 104.642 91.8691 105.017 91.1426C105.392 90.416 105.937 89.7773 106.652 89.2266C107.366 88.6641 108.216 88.2246 109.2 87.9082C110.196 87.5918 111.31 87.4336 112.54 87.4336C114.017 87.4336 115.329 87.6797 116.478 88.1719C117.626 88.6641 118.528 89.4023 119.185 90.3867C119.853 91.3711 120.187 92.6016 120.187 94.0781V102.217C120.187 103.26 120.251 104.115 120.38 104.783C120.509 105.439 120.696 106.014 120.943 106.506V106.805H115.827C115.581 106.289 115.394 105.645 115.265 104.871C115.148 104.086 115.089 103.301 115.089 102.516ZM115.757 95.2207L115.792 98.0859H112.962C112.294 98.0859 111.714 98.1621 111.222 98.3145C110.73 98.4668 110.325 98.6836 110.009 98.9648C109.693 99.2344 109.458 99.5508 109.306 99.9141C109.165 100.277 109.095 100.676 109.095 101.109C109.095 101.543 109.194 101.936 109.394 102.287C109.593 102.627 109.88 102.896 110.255 103.096C110.63 103.283 111.069 103.377 111.573 103.377C112.335 103.377 112.997 103.225 113.56 102.92C114.122 102.615 114.556 102.24 114.861 101.795C115.177 101.35 115.341 100.928 115.353 100.529L116.689 102.674C116.501 103.154 116.243 103.652 115.915 104.168C115.599 104.684 115.194 105.17 114.702 105.627C114.21 106.072 113.618 106.441 112.927 106.734C112.236 107.016 111.415 107.156 110.466 107.156C109.259 107.156 108.163 106.916 107.179 106.436C106.206 105.943 105.433 105.27 104.859 104.414C104.296 103.547 104.015 102.562 104.015 101.461C104.015 100.465 104.202 99.5801 104.577 98.8066C104.952 98.0332 105.503 97.3828 106.23 96.8555C106.968 96.3164 107.888 95.9121 108.989 95.6426C110.091 95.3613 111.368 95.2207 112.821 95.2207H115.757ZM129.152 91.9336V106.805H124.089V87.7852H128.853L129.152 91.9336ZM134.882 87.6621L134.794 92.3555C134.548 92.3203 134.249 92.291 133.898 92.2676C133.558 92.2324 133.247 92.2148 132.966 92.2148C132.251 92.2148 131.63 92.3086 131.103 92.4961C130.587 92.6719 130.153 92.9355 129.802 93.2871C129.462 93.6387 129.204 94.0664 129.028 94.5703C128.864 95.0742 128.771 95.6484 128.747 96.293L127.728 95.9766C127.728 94.7461 127.851 93.6152 128.097 92.584C128.343 91.541 128.7 90.6328 129.169 89.8594C129.65 89.0859 130.236 88.4883 130.927 88.0664C131.618 87.6445 132.409 87.4336 133.3 87.4336C133.581 87.4336 133.868 87.457 134.161 87.5039C134.454 87.5391 134.694 87.5918 134.882 87.6621ZM142.335 79.7871V106.805H137.273V79.7871H142.335ZM154.323 87.7852L146.062 97.207L141.632 101.689L139.786 98.0332L143.302 93.5684L148.241 87.7852H154.323ZM149.068 106.805L143.443 98.0156L146.941 94.957L154.903 106.805H149.068Z" fill="white"/>
</svg>
